<svg xmlns="http://www.w3.org/2000/svg" xmlns:xlink="http://www.w3.org/1999/xlink" width="65.66" height="65.66" viewBox="0 0 65.66 65.66"><defs><style>.cls-1,.cls-4,.cls-6,.cls-7,.cls-8,.cls-9{fill:none;}.cls-2{fill:#00656f;}.cls-3{fill:#fff;}.cls-4,.cls-7,.cls-8{stroke:#bdce31;}.cls-4{stroke-width:1.48px;}.cls-5{clip-path:url(#clip-path);}.cls-6,.cls-9{stroke:#00656f;}.cls-6,.cls-7{stroke-width:5.42px;}.cls-8,.cls-9{stroke-width:8.58px;}.cls-10{fill:#bdce31;}</style><clipPath id="clip-path" transform="translate(-0.16 -0.16)"><rect class="cls-1" width="65.98" height="65.98"/></clipPath></defs><title>bbsa</title><g id="Layer_2" data-name="Layer 2"><g id="Guides"><path class="cls-2" d="M33,65.82A32.83,32.83,0,1,0,.16,33,32.83,32.83,0,0,0,33,65.82Z" transform="translate(-0.16 -0.16)"/><path class="cls-3" d="M33,55.29A22.3,22.3,0,1,0,10.69,33,22.32,22.32,0,0,0,33,55.29Z" transform="translate(-0.16 -0.16)"/><path class="cls-4" d="M33,55.29A22.3,22.3,0,1,0,10.69,33,22.32,22.32,0,0,0,33,55.29Z" transform="translate(-0.16 -0.16)"/><g class="cls-5"><polyline class="cls-6" points="17.02 25.74 27.38 30.49 38.05 5.47"/><line class="cls-7" x1="35.34" y1="33.02" x2="44.57" y2="10.51"/><line class="cls-6" x1="43.81" y1="33.02" x2="52.99" y2="10.64"/><path class="cls-8" d="M5.73,33a27.26,27.26,0,1,0,54.51,0" transform="translate(-0.16 -0.16)"/><path class="cls-9" d="M5.73,33a27.26,27.26,0,1,1,54.51,0" transform="translate(-0.16 -0.16)"/></g><path class="cls-3" d="M9.28,49.71,13,47.29l-.39-.59-2.48.48-.8.17c.12-.15.32-.44.47-.67l1.41-2.11L10.79,44,7.12,46.42l.34.52L9.4,45.66l.64-.43-.42.62L8.13,48.09l2.65-.47.74-.14c-.11.06-.44.26-.66.41L8.92,49.17l.36.54Zm4,4.69.45-.46-1.62-1.58,1-1,.9.88.45-.45-.9-.89.76-.77,1.55,1.51.45-.45-2-2-3.07,3.14,2.09,2ZM19,58.52l2.23-3.78-.6-.36-2,1.52-.63.5c0-.18.08-.53.12-.8l.34-2.52-.58-.34-2.24,3.78.54.32,1.18-2c.13-.23.32-.56.38-.68l-.11.74-.35,2.67L19.4,56l.6-.45-.41.66-1.18,2,.56.33Zm6.43,1.23a1,1,0,0,0-.39-1.2.93.93,0,0,0,.8-.66A1.11,1.11,0,0,0,25,56.41l-1.72-.56L21.89,60l1.66.54a1.29,1.29,0,0,0,1.85-.82Zm-.23-2a.54.54,0,0,1-.75.34L23.3,57.7l.35-1.08,1.12.36a.54.54,0,0,1,.4.74Zm-.41,1.85c-.13.41-.42.63-1,.45l-1.12-.37.45-1.38,1.14.37a.69.69,0,0,1,.51.93Zm6.17,2.51.06-.63-2.26-.21.12-1.38,1.26.11.05-.63-1.25-.12L29,58.14l2.17.19,0-.63-2.82-.25L28,61.82l2.92.26Zm6-3.31a1.27,1.27,0,0,0-1.58-1.1l-1.91.27L34,62.29l.64-.09-.25-1.72,1-.14,1.1,1.6.76-.1-1.14-1.66a1.22,1.22,0,0,0,.78-1.41Zm-.66.12a.66.66,0,0,1-.64.8l-1.27.17-.2-1.4,1.27-.17a.67.67,0,0,1,.84.6Zm10.43-.19-.3-.56-2.06,1.08c-.11-.42,0-.78.49-1.61s.62-1.18.31-1.78-1.08-.78-1.88-.36a2.19,2.19,0,0,0-1,1.23l.6.25a1.6,1.6,0,0,1,.74-.89c.53-.28.85-.19,1,.12s.1.51-.26,1.1a2.74,2.74,0,0,0-.39,2.89l2.79-1.47Zm3.66-5.17c-.83-1-1.88-1.39-2.76-.68s-.77,1.83.07,2.87,1.88,1.39,2.76.67.77-1.82-.07-2.86Zm-.51.43c.58.72.79,1.44.19,1.93s-1.28.12-1.86-.6-.79-1.45-.19-1.93,1.28-.12,1.86.6Zm5.36-2.25L51.75,49l-.33.42c.25.31.13.7-.13,1.07l.36.28.49-.61,2.62,2.11.42-.51Zm2.68-6.45a1.09,1.09,0,0,0-1.33.14.92.92,0,0,0-.47-.93c-.74-.42-1.43.05-1.82.73s-.41,1.55.33,2a.93.93,0,0,0,1-.1,1.11,1.11,0,0,0,.58,1.21c.75.42,1.49.09,2-.84s.43-1.75-.33-2.17Zm-2.1-.2c.28.15.35.54.08,1s-.65.64-1,.47-.43-.5-.12-1.06.71-.62,1-.45Zm1.79.79c.38.2.46.66.12,1.28s-.77.78-1.18.55S56,47,56.37,46.41s.78-.79,1.18-.56Z" transform="translate(-0.16 -0.16)"/><path class="cls-3" d="M12.36,18.24,7.81,17.17l-.39.58,2.8,3.74.38-.57L9.93,20l1-1.47,1.07.26.39-.59Zm-2.07.17-.74,1.14L8.9,18.7c-.21-.27-.54-.68-.67-.83.18.06.71.2,1,.28l1,.26Zm5.56-5.14-.65.1a1,1,0,0,1-.33,1.06c-.56.52-1.29.35-2-.37s-.79-1.46-.23-2a1,1,0,0,1,1-.24l.18-.66a1.56,1.56,0,0,0-1.65.42c-.83.77-.72,2,.18,2.92s2.08,1.17,2.91.39a1.65,1.65,0,0,0,.53-1.64ZM21,9.76l-.66,0a1,1,0,0,1-.57.95c-.67.37-1.34,0-1.82-.83s-.42-1.6.25-2a1,1,0,0,1,1.05,0l.33-.6a1.56,1.56,0,0,0-1.7,0c-1,.55-1.17,1.72-.52,2.88s1.74,1.63,2.73,1.08A1.69,1.69,0,0,0,21,9.76Zm5.41-4.45a1.27,1.27,0,0,0-1.7-.9l-1.87.51L24,9.16,24.63,9l-.46-1.68,1-.26,1.3,1.45.73-.2L25.82,6.81a1.22,1.22,0,0,0,.6-1.5Zm-.64.19a.67.67,0,0,1-.53.88L24,6.71l-.37-1.36L24.88,5a.67.67,0,0,1,.9.49Zm7.29,2.14V7L30.8,7l0-1.39H32V5H30.77V3.91l2.17,0V3.25l-2.83,0,.06,4.4,2.92,0ZM39.7,6.26a2,2,0,0,0-1.62-2.61L36.91,3.4,36,7.7,37.14,8A2,2,0,0,0,39.7,6.26Zm-.65-.14a1.35,1.35,0,0,1-1.77,1.2l-.53-.11.66-3,.53.11a1.37,1.37,0,0,1,1.11,1.84Zm3.56,3.41,1.77-4-.61-.26L42,9.27l.6.26ZM50,9.4l.37-.53L47.75,7l-.36.53,1,.73L46.3,11.38l.54.38L49,8.67,50,9.4Zm2.09,7,.47-.43-1.54-1.66,1-.95.86.93.47-.44-.86-.92.8-.74,1.48,1.59.47-.44-1.93-2.07-3.22,3,2,2.14Zm5.4,4a2,2,0,0,0,.8-3l-.61-1-3.78,2.23.61,1a2,2,0,0,0,3,.73Zm-.34-.58a1.36,1.36,0,0,1-2.09-.47l-.28-.47,2.69-1.58.27.46a1.36,1.36,0,0,1-.59,2.06Z" transform="translate(-0.16 -0.16)"/><path class="cls-2" d="M22.77,39.93a1.29,1.29,0,0,1-.42,1,1.41,1.41,0,0,1-1,.4H16.59V37h4.55a1.83,1.83,0,0,1,1.09.29,1.21,1.21,0,0,1,.44,1,1.38,1.38,0,0,1-.24.81,1.36,1.36,0,0,1,.34.78M17.72,38.6h3.82v-.49H17.72v.49Zm0,1.61h3.84v-.5H17.74v.5Z" transform="translate(-0.16 -0.16)"/><path class="cls-2" d="M29.45,39.93a1.29,1.29,0,0,1-.42,1,1.41,1.41,0,0,1-1,.4H23.27V37h4.55a1.83,1.83,0,0,1,1.09.29,1.23,1.23,0,0,1,.44,1,1.38,1.38,0,0,1-.24.81,1.43,1.43,0,0,1,.34.78M24.4,38.6h3.81v-.49H24.4v.49Zm0,1.61h3.84v-.5H24.42v.5Z" transform="translate(-0.16 -0.16)"/><path class="cls-2" d="M36.44,40a1.2,1.2,0,0,1-.44.94,1.44,1.44,0,0,1-1,.38l-4.83,0v-1.1h5.17v-.51h-4a1.49,1.49,0,0,1-1-.38,1.25,1.25,0,0,1-.45-1,1.18,1.18,0,0,1,.52-1,1.84,1.84,0,0,1,1.08-.36l4.66,0v1.08H31.06v.52H35a1.44,1.44,0,0,1,1,.4,1.29,1.29,0,0,1,.43,1" transform="translate(-0.16 -0.16)"/><path class="cls-2" d="M42.49,41.34l-1.17,0-.65-1.12H38.56L38,41.32l-1.22,0,1.66-3.26a3,3,0,0,1,.47-.72,1,1,0,0,1,.76-.34,1,1,0,0,1,.74.36,5.08,5.08,0,0,1,.46.73l1.65,3.23Zm-2.37-2.25-.5-.91-.51.91Z" transform="translate(-0.16 -0.16)"/><polygon class="cls-2" points="45.21 41.1 43.92 41.1 41.72 36.76 43.01 36.76 45.21 41.1 45.21 41.1"/><polygon class="cls-10" points="47.16 41.08 45.87 41.08 43.67 36.73 44.96 36.73 47.16 41.08 47.16 41.08"/><polygon class="cls-2" points="49.07 41.09 47.78 41.09 45.58 36.74 46.87 36.74 49.07 41.09 49.07 41.09"/><polygon class="cls-10" points="19.91 42.95 45.77 42.95 45.77 41.78 19.91 41.78 19.91 42.95 19.91 42.95"/><polygon class="cls-10" points="16.43 42.95 19.09 42.95 19.09 41.78 16.43 41.78 16.43 42.95 16.43 42.95"/><polygon class="cls-2" points="16.43 44.61 19.09 44.61 19.09 43.44 16.43 43.44 16.43 44.61 16.43 44.61"/><polygon class="cls-10" points="46.69 42.95 49.09 42.95 49.09 41.78 46.69 41.78 46.69 42.95 46.69 42.95"/><polygon class="cls-2" points="46.69 44.61 49.09 44.61 49.09 43.44 46.69 43.44 46.69 44.61 46.69 44.61"/><polygon class="cls-2" points="19.92 44.61 45.77 44.61 45.77 43.44 19.92 43.44 19.92 44.61 19.92 44.61"/><path class="cls-2" d="M17.13,45.37c.27,0,.3.18.3.23a.2.2,0,0,1-.16.2h0a.23.23,0,0,1,.21.23.27.27,0,0,1-.14.23,1.09,1.09,0,0,1-.26,0h-.53v-.93Zm-.27.36H17s.13,0,.13-.09-.09-.08-.13-.08h-.14v.17Zm0,.37H17s.15,0,.15-.1-.11-.09-.15-.09h-.16v.19Z" transform="translate(-0.16 -0.16)"/><path class="cls-2" d="M17.65,45.37h.52a.44.44,0,0,1,.3.07.24.24,0,0,1,.09.19c0,.09,0,.21-.24.26h0a.19.19,0,0,1,.1,0,.71.71,0,0,1,.07.09l.15.27h-.35L18.12,46s-.05-.09-.13-.09h0v.38h-.31v-.93Zm.31.38h.17c.06,0,.07,0,.08,0a.07.07,0,0,0,0-.06c0-.09-.1-.09-.15-.09H18v.19Z" transform="translate(-0.16 -0.16)"/><polygon class="cls-2" points="18.6 46.14 18.91 46.14 18.91 45.21 18.6 45.21 18.6 46.14 18.6 46.14"/><polygon class="cls-2" points="20.01 45.21 20.01 45.44 19.7 45.44 19.7 46.14 19.38 46.14 19.38 45.44 19.07 45.44 19.07 45.21 20.01 45.21 20.01 45.21"/><polygon class="cls-2" points="20.17 46.14 20.48 46.14 20.48 45.21 20.17 45.21 20.17 46.14 20.17 46.14"/><path class="cls-2" d="M21.11,46a.15.15,0,0,0,.17.16c.11,0,.14-.05.14-.09s-.08-.1-.19-.12-.38-.08-.38-.3a.22.22,0,0,1,.1-.18.49.49,0,0,1,.33-.08c.15,0,.38,0,.41.27l-.29,0s0-.12-.16-.12-.1,0-.1.07,0,.06.12.07c.25,0,.47.11.47.33s-.06.31-.45.31-.34-.06-.38-.11a.31.31,0,0,1-.09-.21l.3,0Z" transform="translate(-0.16 -0.16)"/><polygon class="cls-2" points="22.03 45.21 22.03 45.53 22.38 45.53 22.38 45.21 22.69 45.21 22.69 46.14 22.38 46.14 22.38 45.76 22.03 45.76 22.03 46.14 21.72 46.14 21.72 45.21 22.03 45.21 22.03 45.21"/><path class="cls-2" d="M24.11,45.37c.27,0,.3.18.3.23a.2.2,0,0,1-.16.2h0a.23.23,0,0,1,.21.23.27.27,0,0,1-.14.23,1.09,1.09,0,0,1-.26,0h-.53v-.93Zm-.27.36H24s.13,0,.13-.09-.09-.08-.13-.08h-.14v.17Zm0,.37H24s.15,0,.15-.1-.11-.09-.15-.09h-.16v.19Z" transform="translate(-0.16 -0.16)"/><polygon class="cls-2" points="24.78 45.21 24.78 45.91 25.27 45.91 25.27 46.14 24.46 46.14 24.46 45.21 24.78 45.21 24.78 45.21"/><polygon class="cls-2" points="25.42 46.14 25.73 46.14 25.73 45.21 25.42 45.21 25.42 46.14 25.42 46.14"/><polygon class="cls-2" points="26.25 45.21 26.63 45.72 26.63 45.72 26.63 45.21 26.92 45.21 26.92 46.14 26.63 46.14 26.25 45.63 26.25 45.63 26.25 46.14 25.96 46.14 25.96 45.21 26.25 45.21 26.25 45.21"/><path class="cls-2" d="M27.76,45.37a.73.73,0,0,1,.26.05.43.43,0,0,1,.2.41.44.44,0,0,1-.19.41.66.66,0,0,1-.27.06h-.47v-.93Zm-.15.21v.51h.07c.15,0,.23,0,.23-.26s-.09-.25-.23-.25Z" transform="translate(-0.16 -0.16)"/><path class="cls-2" d="M29.88,45.89a.45.45,0,0,1-.08.17l0,0,.05,0,.07,0-.14.15-.09,0-.08-.05a.66.66,0,0,1-.38.09.46.46,0,0,1-.31-.08.28.28,0,0,1-.09-.18c0-.17.19-.24.25-.27a.28.28,0,0,1-.09-.2c0-.19.2-.22.33-.22a.38.38,0,0,1,.25.06.16.16,0,0,1,.08.14c0,.12-.1.18-.21.24l.15.13,0-.08.22,0Zm-.74.14c0,.06.06.12.16.12a.38.38,0,0,0,.17-.06,1.88,1.88,0,0,1-.23-.18s-.1.06-.1.12Zm.31-.47s-.05-.07-.09-.07a.09.09,0,0,0-.1.08s0,.09.08.11.11-.06.11-.12Z" transform="translate(-0.16 -0.16)"/><path class="cls-2" d="M30.83,46a.16.16,0,0,0,.18.16c.1,0,.14-.05.14-.09s-.08-.1-.2-.12-.38-.08-.38-.3a.25.25,0,0,1,.1-.18.49.49,0,0,1,.33-.08c.16,0,.38,0,.42.27l-.3,0s0-.12-.15-.12-.11,0-.11.07,0,.06.13.07c.25,0,.46.11.46.33s-.06.31-.45.31-.33-.06-.38-.11a.47.47,0,0,1-.09-.21l.3,0Z" transform="translate(-0.16 -0.16)"/><polygon class="cls-2" points="31.76 45.21 31.76 45.53 32.1 45.53 32.1 45.21 32.41 45.21 32.41 46.14 32.1 46.14 32.1 45.76 31.76 45.76 31.76 46.14 31.45 46.14 31.45 45.21 31.76 45.21 31.76 45.21"/><path class="cls-2" d="M33.75,45.37v.55a.43.43,0,0,1-.06.22.42.42,0,0,1-.4.17c-.25,0-.33,0-.4-.11a.43.43,0,0,1-.11-.28v-.55h.31v.57c0,.07,0,.16.18.16a.15.15,0,0,0,.17-.16v-.57Z" transform="translate(-0.16 -0.16)"/><polygon class="cls-2" points="34.68 45.21 34.68 45.44 34.36 45.44 34.36 46.14 34.05 46.14 34.05 45.44 33.73 45.44 33.73 45.21 34.68 45.21 34.68 45.21"/><polygon class="cls-2" points="35.7 45.21 35.7 45.44 35.38 45.44 35.38 46.14 35.07 46.14 35.07 45.44 34.75 45.44 34.75 45.21 35.7 45.21 35.7 45.21"/><polygon class="cls-2" points="36.67 45.21 36.67 45.41 36.15 45.41 36.15 45.56 36.64 45.56 36.64 45.74 36.15 45.74 36.15 45.93 36.69 45.93 36.69 46.14 35.84 46.14 35.84 45.21 36.67 45.21 36.67 45.21"/><path class="cls-2" d="M37,45.37h.52a.46.46,0,0,1,.31.07.26.26,0,0,1,.08.19c0,.09,0,.21-.24.26h0a.19.19,0,0,1,.1,0,.31.31,0,0,1,.07.09l.15.27h-.35L37.49,46a.14.14,0,0,0-.13-.09h0v.38H37v-.93Zm.31.38h.17c.06,0,.07,0,.09,0a.09.09,0,0,0,0-.06c0-.09-.1-.09-.15-.09h-.14v.19Z" transform="translate(-0.16 -0.16)"/><path class="cls-2" d="M38.85,46.14l-.05.16h-.32l.38-.93h.34l.38.93h-.33l0-.16Zm.29-.2L39,45.61h0l-.11.33Z" transform="translate(-0.16 -0.16)"/><path class="cls-2" d="M39.93,46c0,.05,0,.16.18.16s.14-.05.14-.09-.08-.1-.2-.12-.38-.08-.38-.3a.22.22,0,0,1,.1-.18.49.49,0,0,1,.33-.08c.15,0,.38,0,.42.27l-.3,0a.13.13,0,0,0-.15-.12c-.08,0-.11,0-.11.07s0,.06.13.07c.25,0,.46.11.46.33s-.06.31-.45.31-.33-.06-.38-.11a.31.31,0,0,1-.09-.21l.3,0Z" transform="translate(-0.16 -0.16)"/><path class="cls-2" d="M41,46a.15.15,0,0,0,.17.16c.11,0,.14-.05.14-.09s-.07-.1-.19-.12-.38-.08-.38-.3a.22.22,0,0,1,.1-.18.49.49,0,0,1,.33-.08c.15,0,.38,0,.41.27l-.29,0a.13.13,0,0,0-.15-.12c-.08,0-.11,0-.11.07s0,.06.12.07c.26,0,.47.11.47.33s-.06.31-.45.31-.34-.06-.38-.11a.31.31,0,0,1-.09-.21l.3,0Z" transform="translate(-0.16 -0.16)"/><path class="cls-2" d="M42.21,45.35a.48.48,0,1,1,0,1,.52.52,0,0,1-.4-.13.44.44,0,0,1-.14-.35.46.46,0,0,1,.53-.48m0,.75c.19,0,.21-.15.21-.28s0-.25-.21-.25-.21.16-.21.26,0,.27.21.27Z" transform="translate(-0.16 -0.16)"/><path class="cls-2" d="M43.84,46a.42.42,0,0,1-.46.32.51.51,0,0,1-.39-.13.46.46,0,0,1-.13-.35.46.46,0,0,1,.16-.38.56.56,0,0,1,.35-.1.43.43,0,0,1,.46.29l-.27.06a.18.18,0,0,0-.18-.13c-.19,0-.21.17-.21.26s0,.27.2.27.18-.13.2-.18l.27.07Z" transform="translate(-0.16 -0.16)"/><polygon class="cls-2" points="43.85 46.14 44.16 46.14 44.16 45.21 43.85 45.21 43.85 46.14 43.85 46.14"/><path class="cls-2" d="M44.81,46.14l-.05.16h-.32l.38-.93h.34l.38.93h-.32l0-.16Zm.29-.2L45,45.61h0l-.11.33Z" transform="translate(-0.16 -0.16)"/><polygon class="cls-2" points="46.27 45.21 46.27 45.44 45.95 45.44 45.95 46.14 45.64 46.14 45.64 45.44 45.32 45.44 45.32 45.21 46.27 45.21 46.27 45.21"/><polygon class="cls-2" points="46.42 46.14 46.73 46.14 46.73 45.21 46.42 45.21 46.42 46.14 46.42 46.14"/><path class="cls-2" d="M47.6,45.35a.48.48,0,1,1,0,1,.54.54,0,0,1-.4-.13.44.44,0,0,1-.13-.35.45.45,0,0,1,.52-.48m0,.75c.19,0,.21-.15.21-.28s0-.25-.21-.25-.21.16-.21.26,0,.27.21.27Z" transform="translate(-0.16 -0.16)"/><polygon class="cls-2" points="48.42 45.21 48.8 45.72 48.81 45.72 48.81 45.21 49.1 45.21 49.1 46.14 48.8 46.14 48.43 45.63 48.43 45.63 48.43 46.14 48.13 46.14 48.13 45.21 48.42 45.21 48.42 45.21"/><path class="cls-2" d="M48.71,36.79a.59.59,0,1,1,0,1.17.59.59,0,1,1,0-1.17Zm0,.12a.47.47,0,1,0,.46.46.45.45,0,0,0-.46-.46Zm-.08.76h-.14V37.1a.65.65,0,0,1,.22,0,.36.36,0,0,1,.21,0,.17.17,0,0,1,.05.12.15.15,0,0,1-.12.14h0c.06,0,.09.06.11.14a.48.48,0,0,0,0,.14h-.14a.44.44,0,0,1-.05-.13.11.11,0,0,0-.12-.1h-.06v.23Zm0-.32h.06c.08,0,.14,0,.14-.09s0-.09-.13-.09h-.07v.17Z" transform="translate(-0.16 -0.16)"/></g></g></svg>