<?xml version="1.0" encoding="UTF-8"?>
<svg id="Layer_2" data-name="Layer 2" xmlns="http://www.w3.org/2000/svg" viewBox="0 0 148.25 74.34">
  <defs>
    <style>
      .cls-1 {
        fill: none;
      }

      .cls-1, .cls-2 {
        stroke-width: 0px;
      }

      .cls-2 {
        fill: #7f7f7f;
      }
    </style>
  </defs>
  <g id="Layer_1-2" data-name="Layer 1">
    <polygon class="cls-2" points="25.16 .04 24.86 .19 24.52 .36 24.45 .4 24.44 .4 24.32 .46 23.79 .19 23.48 .04 21.34 .04 22.9 .83 22.98 .87 23.25 1 23.97 1.37 24.05 1.4 24.32 1.54 27.3 .04 25.16 .04"/>
    <polygon class="cls-2" points="24.86 .04 24.86 .99 23.79 .99 23.79 0 23.87 .04 24.86 .04"/>
    <polygon class="cls-2" points="53.36 14.97 52.81 14.69 51.33 13.95 51.33 14.86 51.31 14.86 52.81 15.61 53.24 15.82 54.83 16.61 54.83 15.71 53.36 14.97"/>
    <polygon class="cls-2" points="73.12 .04 73.12 24.9 71.61 24.14 71.05 23.86 69.58 23.12 69.03 22.84 67.55 22.1 67 21.82 65.52 21.08 64.97 20.8 63.5 20.07 62.94 19.78 61.47 19.05 60.92 18.77 59.44 18.03 58.89 17.75 57.41 17 56.86 16.73 55.39 15.99 54.83 15.71 53.36 14.97 52.81 14.69 51.33 13.95 50.78 13.67 49.6 13.08 49.6 .04 48.53 .04 48.53 13.62 49.21 13.96 49.22 13.97 50.78 14.75 51 14.86 52.81 15.77 52.91 15.82 54.83 16.78 74.2 26.52 74.2 .04 73.12 .04"/>
    <path class="cls-2" d="m24.93,26.56l22.92,11.51.03-.02-22.95-11.49Zm22.96,11.49h0l-22.95-11.49,22.92,11.51.53.27v.53l.15-.07v-.42l-.64-.33Zm0,0h0l-22.95-11.49,22.92,11.51.53.27v.53l.15-.07v-.42l-.64-.33Zm0,0h0l-22.95-11.49,22.92,11.51.53.27v.53l.15-.07v-.42l-.64-.33Zm.64-.71l-21.8-10.96-1.22-.61-.1-.05-.97-.49-.11-.06-1.09.54L1.73,36.53l-1.46.73-.27.14v26.06l21.63,10.87h2.13L.27,62.51v-24.17l.53-.27.97-.49,22.55-11.33.11.06.5.25,22.92,11.51.53.27v24.17l-14.89,7.49-8.61,4.33h2.14l21.36-10.73.15-.08.65-.33.27-.14v-25.25l-.92-.46Zm-.64.71h0l-22.95-11.49,22.92,11.51.53.27v.53l.15-.07v-.42l-.64-.33Zm0,0h0l-22.95-11.49,22.92,11.51.53.27v.53l.15-.07v-.42l-.64-.33Zm0,0h0l-22.95-11.49,22.92,11.51.53.27v.53l.15-.07v-.42l-.64-.33Zm-22.96-11.49l22.92,11.51.03-.02-22.95-11.49Z"/>
    <polygon class="cls-2" points="49.18 38.47 48.95 38.59 48.53 38.8 48.38 38.87 24.86 50.7 24.32 50.97 23.79 50.7 .27 38.87 0 38.74 0 37.67 .8 38.07 24.32 49.89 47.85 38.07 47.88 38.05 47.89 38.05 48.65 37.67 49.18 38.47"/>
    <rect class="cls-2" x="23.79" y="50.43" width="1.07" height="23.9"/>
    <polygon class="cls-2" points="74.2 50.16 74.2 74.33 73.12 74.33 73.12 50.7 71.61 49.94 71.21 49.74 69.58 48.92 69.28 48.77 67.55 47.9 67.37 47.81 67.36 47.81 65.52 46.88 65.44 46.84 57.41 42.8 56.86 42.53 55.39 41.79 55.19 41.69 53.36 40.77 52.81 40.49 51.33 39.75 50.87 39.52 49.6 38.88 49.6 74.33 48.53 74.33 48.53 37.26 73.66 49.89 73.7 49.91 74.2 50.16"/>
    <polygon class="cls-2" points="24.32 1.54 .27 13.63 .27 37.26 0 37.4 0 13.49 23.97 1.37 24.05 1.4 24.32 1.54"/>
    <polygon class="cls-2" points="49.45 .04 49.45 13.85 49.37 13.89 49.36 13.89 49.22 13.97 49.18 13.99 25.51 25.77 24.43 26.31 1.77 37.58 .8 38.07 .27 38.34 0 38.47 0 12.68 23.25 1 23.79 .73 24.32 .46 24.44 .4 24.45 .4 24.52 .36 24.86 .19 25.16 .04 27.3 .04 24.32 1.54 .27 13.63 .27 37.26 1.73 36.53 23.36 25.77 24.44 25.23 48.38 13.31 48.38 .04 49.45 .04"/>
    <path class="cls-2" d="m59.44,18.03l-.55-.28-1.48-.75-.55-.27-1.47-.74-.56-.28v.9l.34.17,1.69.84.23.12,1.8.89.15.08,1.88.93v-.87l-1.48-.74Zm-32.71,8.35l-1.22-.61-1.08.54.5.25,22.95,11.49h0l.64.33v-1.08l-21.8-10.92Zm72.13,11.08l-.2-.1h-.01l-.86-.43-23.52-11.71-.07-.04-1-.49-.08-.04-1.51-.76-.56-.28-1.47-.73-.55-.27-1.48-.74-.55-.27-1.48-.74-.55-.27-1.47-.73-.56-.28-1.47-.74-.55-.27-1.48-.74-.55-.27-1.48-.74-.55-.27-1.47-.73-.56-.28-1.47-.73-.55-.28-1.48-.73-.55-.28-1.18-.59-.15-.07-.08-.04-.84.41-.15.08-24.05,11.86-1.09.54.12.06.96.48.11.06.5.25,22.95,11.49h0l.64.33.42.21.5.25.15.07,1.21.61.52.26,1.48.74.55.28,1.78.89.25.12,1.47.74.55.28,6.09,3.05,1.92.96.1.05,1.84.92h.01l.18.09,1.73.87.3.15,1.63.82.4.2,1.51.76.08.03.19.1.27.14.54-.27,24.02-12.15,1.4-.71-.76-.38Zm-50.33-.16l-21.8-10.92-1.22-.61-.1-.05,23.8-11.76.15-.07h.01l1.41.71.53.26,1.5.75.43.21,1.59.79.34.17,1.69.84.23.12,1.8.89.15.08,1.88.93.05.03,12.23,6.09,1,.5,23.27,11.58-.33.17-23.48,11.88-25.13-12.59Z"/>
    <polygon class="cls-2" points="24.86 74.33 24.87 74.33 24.86 74.34 24.86 74.33"/>
    <polygon class="cls-2" points="49.45 61.98 49.45 74.33 48.38 74.33 48.38 63.6 27.02 74.33 24.88 74.33 33.49 70 48.38 62.51 48.53 62.44 49.45 61.98"/>
    <polygon class="cls-2" points="148.25 37.81 148.25 38.88 148.19 38.85 147.71 38.61 147.44 38.47 147.98 37.67 148.19 37.78 148.25 37.81"/>
    <polygon class="cls-2" points="98.66 37.36 98.86 37.46 98.86 37.25 98.66 37.36"/>
    <polygon class="cls-2" points="122.53 .26 122.1 .04 119.95 .04 121.84 .99 122.38 1.26 122.38 25.43 98.86 37.25 98.66 37.36 98.65 37.36 98.32 37.52 97.79 37.25 74.27 25.43 74.27 1.26 74.81 .99 76.7 .04 74.54 .04 74.27 .18 74.2 .21 73.47 .58 73.2 .72 73.2 25.97 74.2 26.47 97.14 38.01 97.26 38.07 98.22 38.55 98.32 38.6 122.38 26.52 122.53 26.44 123.18 26.11 123.45 25.97 123.45 .72 122.53 .26"/>
    <polygon class="cls-2" points="73.46 1.4 74 .58 98.32 12.81 122.65 .58 123.18 1.4 98.32 13.88 73.46 1.4"/>
    <rect class="cls-2" x="97.79" y="13.35" width="1.07" height="24.72"/>
    <path class="cls-2" d="m147.69,12.83l-.03-.02-1.98-.99L122.53.18v50.51l.68.34,24.98,12.55V13.08l-.5-.25Zm-.57,49.14l-1.24-.62-.56-.28-1.47-.74-.55-.28-1.48-.74-.55-.28-1.48-.74-.55-.28-1.48-.74-.55-.28-1.47-.74-.55-.28-1.48-.74-.55-.28-1.48-.74-.55-.28-1.47-.73-.56-.29-1.47-.73-.55-.28-1.48-.74-.55-.28-1.45-.73V1.8l1.45.73.55.28,1.48.74.55.28,1.47.73.56.29,1.47.73.55.28,1.79.9.24.12,1.67.84.36.18,1.57.79.45.23,1.48.74.55.28,1.48.74.55.28,1.48.74.55.28,1.47.73h0s.56.28.56.28h0s1.24.63,1.24.63v48.35Z"/>
    <polygon class="cls-2" points="74.54 .04 74.27 .18 74.27 .04 73.2 .04 73.2 1.79 73.72 1.53 74.2 1.29 74.27 1.26 74.81 .99 76.72 .04 74.54 .04"/>
    <polygon class="cls-2" points="122.17 .04 120.02 .04 121.87 .97 122.53 1.3 122.53 .22 122.17 .04"/>
    <polygon class="cls-2" points="147.66 12.81 145.68 11.82 122.53 .22 122.17 .04 120.02 .04 121.87 .97 122.53 1.3 122.96 1.51 123.45 1.76 123.6 1.83 125.05 2.56 125.6 2.84 127.08 3.58 127.63 3.85 129.1 4.59 129.66 4.87 131.13 5.61 131.68 5.88 133.44 6.76 133.71 6.9 135.35 7.72 135.74 7.91 137.29 8.69 137.76 8.92 137.76 8.93 139.24 9.67 139.79 9.94 141.27 10.68 141.82 10.96 143.3 11.7 143.85 11.98 145.32 12.71 145.32 12.72 145.88 12.99 145.88 13 147.12 13.62 147.18 13.64 147.39 13.75 147.66 13.89 148.19 13.62 148.25 13.59 148.25 12.51 147.66 12.81"/>
    <polygon class="cls-2" points="122.38 74.33 120.23 74.33 98.93 63.63 98.43 63.38 98.32 63.32 76.43 74.33 74.27 74.33 97.24 62.78 98.33 62.24 98.43 62.3 99.51 62.84 122.38 74.33"/>
    <path class="cls-2" d="m122.53,25.36l-.15.07-23.52,11.83-.2.1h-.01l-.86.44-.53.27-23.56,11.84-.23.11-.27.13v24.18h1.07v-23.64l48.11-24.17v23.85l-23.95,11.93-1.08.54-23.08,11.49h2.16l22-10.95,1.08-.54h0s23.66-11.79,23.66-11.79l.03-.02.15-.07.09-.04v-26.02l-.92.46Z"/>
    <polygon class="cls-2" points="148.25 62.27 148.25 63.35 148.19 63.32 147.18 62.82 125.05 51.8 123.36 50.96 123.21 51.03 123.18 51.05 99.41 62.78 99.52 62.83 122.46 74.33 120.3 74.33 98.93 63.63 98.43 63.38 98.32 63.32 97.35 62.84 97.24 62.78 98.33 62.24 122.38 50.37 122.53 50.29 123.37 49.88 123.45 49.92 123.6 49.99 125.05 50.72 125.6 50.99 127.08 51.73 127.63 52 129.1 52.73 129.66 53.01 131.13 53.74 131.68 54.02 133.16 54.76 133.71 55.03 135.19 55.77 135.74 56.04 137.21 56.77 137.76 57.05 139.24 57.78 139.79 58.06 141.27 58.79 141.82 59.07 143.3 59.81 143.85 60.08 145.32 60.81 145.88 61.09 147.12 61.71 147.18 61.74 148.19 62.24 148.25 62.27"/>
    <rect class="cls-2" x="71.05" y=".04" width=".56" height="24.45"/>
    <rect class="cls-2" x="69.03" y=".04" width=".55" height="23.49"/>
    <rect class="cls-2" x="67" y=".04" width=".55" height="22.52"/>
    <rect class="cls-2" x="64.97" y=".04" width=".55" height="21.55"/>
    <rect class="cls-2" x="62.94" y=".04" width=".56" height="20.59"/>
    <rect class="cls-2" x="60.92" y=".04" width=".55" height="19.63"/>
    <rect class="cls-2" x="58.89" y=".04" width=".55" height="18.67"/>
    <rect class="cls-2" x="56.86" y=".04" width=".55" height="17.7"/>
    <rect class="cls-2" x="54.83" y=".04" width=".56" height="16.74"/>
    <rect class="cls-2" x="52.81" y=".04" width=".55" height="15.78"/>
    <rect class="cls-2" x="50.78" y=".04" width=".55" height="14.82"/>
    <rect class="cls-2" x="71.05" y="49.74" width=".56" height="24.59"/>
    <rect class="cls-2" x="69.03" y="48.77" width=".55" height="25.56"/>
    <rect class="cls-2" x="67" y="47.81" width=".55" height="26.52"/>
    <rect class="cls-2" x="64.97" y="46.84" width=".55" height="27.49"/>
    <rect class="cls-2" x="62.94" y="45.88" width=".56" height="28.45"/>
    <rect class="cls-2" x="60.92" y="44.92" width=".55" height="29.41"/>
    <rect class="cls-2" x="58.89" y="43.96" width=".55" height="30.37"/>
    <rect class="cls-2" x="56.86" y="42.41" width=".55" height="31.92"/>
    <rect class="cls-2" x="54.83" y="41.69" width=".56" height="32.64"/>
    <rect class="cls-2" x="52.81" y="40.49" width=".55" height="33.84"/>
    <rect class="cls-2" x="50.78" y="39.52" width=".55" height="34.81"/>
    <rect class="cls-2" x="145.32" y="12.54" width=".55" height="48.9"/>
    <rect class="cls-2" x="143.3" y="11.58" width=".55" height="48.89"/>
    <rect class="cls-2" x="141.27" y="10.61" width=".55" height="48.9"/>
    <rect class="cls-2" x="139.24" y="9.65" width=".55" height="48.9"/>
    <rect class="cls-2" x="137.21" y="8.69" width=".55" height="48.9"/>
    <rect class="cls-2" x="135.19" y="7.72" width=".55" height="48.89"/>
    <rect class="cls-2" x="133.16" y="6.76" width=".55" height="48.9"/>
    <rect class="cls-2" x="131.13" y="5.22" width=".55" height="49.48"/>
    <rect class="cls-2" x="129.1" y="4.49" width=".55" height="49.24"/>
    <rect class="cls-2" x="127.08" y="3.29" width=".55" height="49.48"/>
    <rect class="cls-2" x="125.05" y="2.33" width=".55" height="49.48"/>
    <rect class="cls-1" y=".04" width="148.25" height="74.29"/>
  </g>
</svg>