<?xml version="1.0" encoding="UTF-8"?>
<svg id="Layer_2" data-name="Layer 2" xmlns="http://www.w3.org/2000/svg" viewBox="0 0 129.67 129.67">
  <defs>
    <style>
      .cls-1 {
        fill: none;
        stroke: #80a63f;
        stroke-miterlimit: 10;
      }
    </style>
  </defs>
  <g id="Layer1">
    <g>
      <path class="cls-1" d="m129.17,64.83c0,35.53-28.8,64.33-64.33,64.33S.5,100.36.5,64.83,29.3.5,64.83.5s64.33,28.8,64.33,64.33Z"/>
      <line class="cls-1" x1="31.42" y1="48" x2="87.42" y2="48"/>
      <line class="cls-1" x1="31.42" y1="51" x2="87.42" y2="51"/>
      <line class="cls-1" x1="31.42" y1="55" x2="87.42" y2="55"/>
      <line class="cls-1" x1="31.42" y1="59" x2="87.42" y2="59"/>
      <rect class="cls-1" x="37.92" y="64" width="13" height="4"/>
      <rect class="cls-1" x="37.92" y="71" width="18" height="4"/>
      <path class="cls-1" d="m87.92,69v-26c0-1.65-1.85-3-3.5-3h-50.25c-1.65,0-3.25,1.35-3.25,3v36.75c0,1.65,1.6,3.25,3.25,3.25h38.08c.75-8,7.67-14,15.67-14Z"/>
      <path class="cls-1" d="m98.86,84.25c0,6.32-5.12,11.45-11.45,11.45s-11.45-5.12-11.45-11.45,5.13-11.45,11.45-11.45,11.45,5.12,11.45,11.45Z"/>
      <path class="cls-1" d="m85.38,91.04l-5.29-5.29c-.78-.78-.78-2.05,0-2.83.78-.78,2.05-.78,2.83,0l2.46,2.46,5.96-5.96c.78-.78,2.05-.78,2.83,0,.78.78.78,2.05,0,2.83l-8.79,8.79Z"/>
      <circle class="cls-1" cx="87.42" cy="84.25" r="15.25"/>
    </g>
  </g>
</svg>