<?xml version="1.0" encoding="UTF-8"?>
<svg id="Layer_2" data-name="Layer 2" xmlns="http://www.w3.org/2000/svg" viewBox="0 0 129.67 129.67">
  <defs>
    <style>
      .cls-1 {
        fill: none;
        stroke: #a6806d;
        stroke-miterlimit: 10;
      }
    </style>
  </defs>
  <g id="Layer1">
    <g>
      <path class="cls-1" d="m129.17,64.83c0,35.53-28.8,64.33-64.33,64.33S.5,100.36.5,64.83,29.3.5,64.83.5s64.33,28.8,64.33,64.33Z"/>
      <ellipse class="cls-1" cx="52.42" cy="56.25" rx="10.75" ry="7"/>
      <path class="cls-1" d="m74.82,56.25c0,8.06-10.03,14.59-22.4,14.59s-22.41-6.53-22.41-14.59,10.03-14.59,22.41-14.59,22.4,6.53,22.4,14.59Z"/>
      <path class="cls-1" d="m78.6,56.25c0,10.19-11.63,18.46-26.19,18.46s-26.35-8.27-26.35-18.46,11.8-18.46,26.35-18.46,26.19,8.26,26.19,18.46Z"/>
      <path class="cls-1" d="m26.17,57.5v15c0,10.36,8.89,18.5,19.25,18.5h56.75v-16h-49.5"/>
      <polyline class="cls-1" points="68.92 71 102.42 71 102.42 73.5"/>
      <line class="cls-1" x1="49.42" y1="91.5" x2="49.42" y2="86.5"/>
      <line class="cls-1" x1="59.42" y1="91.5" x2="59.42" y2="86.5"/>
      <line class="cls-1" x1="68.42" y1="91.5" x2="68.42" y2="82.5"/>
      <line class="cls-1" x1="77.42" y1="91.5" x2="77.42" y2="86.5"/>
      <line class="cls-1" x1="87.42" y1="91.5" x2="87.42" y2="86.5"/>
      <line class="cls-1" x1="96.42" y1="91.5" x2="96.42" y2="82.5"/>
      <path class="cls-1" d="m30.42,66.5v5.5c0,8.41,6.18,15,14.59,15h54.91"/>
      <line class="cls-1" x1="75.67" y1="65" x2="75.67" y2="70.5"/>
      <line class="cls-1" x1="78.67" y1="56.5" x2="78.67" y2="70.5"/>
    </g>
  </g>
</svg>