<?xml version="1.0" encoding="UTF-8"?>
<svg id="Layer_2" data-name="Layer 2" xmlns="http://www.w3.org/2000/svg" viewBox="0 0 129.67 129.66">
  <defs>
    <style>
      .cls-1 {
        fill: none;
        stroke: #bca047;
        stroke-miterlimit: 10;
      }

      .cls-2 {
        fill: #bca047;
        stroke-width: 0px;
      }
    </style>
  </defs>
  <g id="Layer_2-2" data-name="Layer 2">
    <path class="cls-1" d="m129.17,64.83c0,35.53-28.8,64.33-64.33,64.33S.5,100.36.5,64.83,29.3.5,64.83.5s64.33,28.8,64.33,64.33h0Z"/>
    <path class="cls-2" d="m81.91,92.46c-3.29,0-6.42-.25-9.3-.74-6.21-1.07-11.8-3.28-17.2-5.41-4.81-1.91-14.02-5.06-22.36-5.06h-.22c-1.96,0-4.15.42-6.37.37-.05,0-.09,0-.14-.03l-1.16-.43-.49,4.86c-.01.13-.1.25-.23.3l-.1.02h-.1c-.12-.02-.2-.1-.23-.14-.03-.04-.08-.13-.07-.26l5.52-54.7c.02-.19.16-.32.34-.32.23.02.38.19.36.38l-.38,3.73,1.69-.48c2.14-.6,5.85-1.32,11.3-1.32,7.86,0,16.8,1.49,26.56,4.42,8.7,2.64,16.92,5.13,24.88,5.13,1.94,0,3.82-.15,5.58-.46h.08s.07-.04.07-.04c.03-.01.07-.02.1-.02h.08s.99-.19.99-.19c1.43-.27,2.76-.89,4.16-1.29.03,0,.06-.01.1-.01.07,0,.14.02.2.06.11.07.16.18.15.3-.74,16.45-3.17,37.04-4.18,45.12v.06s0,.19,0,.19l-.3,2.33c-.07.55-.11.9-.12,1v-.11c0,.1-.06.19-.15.25l-.15.03c-.07.02-8.5,2.46-18.92,2.46Zm-7.76-1.24c2.44.33,4.92.5,7.38.5h.21c2.81,0,5.65-.18,8.45-.51l3.89-.43-3.49-1.79c-4.22-2.21-8.99-5.66-14.56-10.52l-1.74-1.6-1.36,14.17,1.2.18Zm-4.9-.95c.57.14,1.15.27,1.73.4l.1.02,1.2.24,1.48-15.49,1.39,1.22c7.96,7.15,14.29,11.43,19.91,13.48l.05.03.2.09.31.05h.09l.16-.02c1.22-.22,2.41-.47,3.63-.76l.93-.22.35-2.87-.9-.33c-4.92-1.78-10.24-5.16-16.74-10.63l-.07-.09-.6-.54h-.4c-2.22,0-4.2-.1-6.04-.28l-1.47-.13-.24,1.52-.6-.52.23-1.61c.07-.07.41-.09.51-.09,2.38.3,4.88.45,7.48.45,8.83,0,16.58-1.7,19.62-2.47l.93-.18.39-3.69-1.67.44c-3.67.92-11.11,2.46-19.54,2.46-3.34,0-6.53-.25-9.47-.74-.16-.02-.3-.06-.44-.1l-1.42-.4-2.13,20.43c0,.07-.03.14-.08.2l-.4.15-.17-.34,2.13-20.03s.02-.08.05-.12l.13-.74c.02-.17.17-.29.34-.29.2.04.52.13,1.09.29l.24.07c.41.13.65.2.86.21,2.87.47,5.99.71,9.25.71,9.36,0,17.63-1.97,19.95-2.57l1.34-.31.09-.8.32-3.22.04-.21.28-1.51-1.75.41c-2.33.57-10.63,2.42-20.09,2.42-3.41,0-6.62-.25-9.54-.73-.07-.01-.12-.03-.16-.04-.09-.02-.21-.06-.34-.07l-.19-.04c-.09-.02-.16-.05-.21-.11l-1.04-.25s-.04-.32-.03-.49l2.21-23.17-.94-.28-2.52-.77c-1.13-.34-2.35-.68-3.72-1.05l-1.36-.34-2.07,21.87c0,.09-.19.66-.19.66,0,0-.89-.18-.93-.2-6.97-3.16-17.27-6.91-26.79-6.91-1.79,0-3.5.14-5.09.41l-.95.13-.64,6h1.34c1.1-.09,2.14-.14,3.18-.14,10.47,0,20.5,4.49,28.55,8.11l.3.14c.08.04.56.24.56.24,0,0-.11.65-.12.73l-1.81,19.08.85.33c2.47.93,4.4,1.59,6.27,2.14l.91.27-.03.03.7.17.22.07h0s.95.21.95.21Zm-35.91-26.9c7.31,0,14.31,2.73,21.73,5.63l.82.32s.08.04.12.07l.07.05.07.04c.14.06.22.21.2.35l-1.48,15.53,3.71,1.43,1.72-18.05.1-.99-.75-.38c-7.26-3.32-17.22-7.88-27.77-7.88-1.2,0-2.4.06-3.56.18h-1.01l-.45,4.44,1.56-.3c1.58-.28,3.23-.43,4.89-.43Zm52.61,13.51c5.06,4.04,9.49,6.77,13.53,8.37l1.45.53.15-1.56c.39-3.06.75-6.28,1.1-9.4l.09-.83.22-1.71-1.64.39c-4.66,1.09-9.45,1.8-14.23,2.11h-3.28s2.61,2.1,2.61,2.1Zm-32.42-1.29c-3.86.76-7.57,2.07-11.04,3.89l-3.06,1.51,3.35.72c3.36.73,6.7,1.69,9.94,2.86l1.45.53.91-9.8-1.55.29Zm-3.44-7.32l-.08.05s-.06.03-.1.04c-7.27,1.08-16.04,6.17-22.86,10.48l-1.68.76-.08,1.03,1.23.35,1.39.03c1.75-.28,3.57-.43,5.37-.43,1.6,0,3.22.12,4.81.34h.07s.55-.17.55-.17l.48-.27c.06-.08.09-.11.13-.13,5.83-3.15,10.6-4.95,14.59-5.52h.15s1.1,0,1.1,0l.44-4.85-.81-.34-3.9-1.52h-.47l-.32.14Zm-24.72,10.59l1.97-1c5.29-3.32,12.07-7.32,18.36-9.23l3.68-1.12-3.67-1.16c-4.79-1.54-8.73-2.27-12.39-2.27-1.89,0-3.71.19-5.58.58l-.96.2-1.41,13.99Zm45.71-16.28l1.03.23c.07.03.23.06.38.07,2.99.48,6.09.73,9.17.73h.3c6.83-.05,13.65-.9,20.29-2.53h.08s.17.03.17.03h1.13l.3-4.37-1.61.43c-3.03.76-11.01,2.77-19.89,2.77-2.38,0-4.67-.15-6.83-.43-.09-.01-.17-.06-.22-.13-.06-.08-.08-.17-.07-.26l1.68-17.49v-.26s.09-.71.09-.71l-1.1-.29-1.31-.37-1.38-.43-2.2,23.01Zm4.94-3.63h1.29c1.64.17,3.35.26,4.97.26h.31l.36-.18c.05-.04.11-.07.17-.09,9.71-3.5,16.63-7.06,21.12-10.87l.46-.33v-.51c.08-1.3.16-2.57.22-3.82v-.07s.12-1.66.12-1.66l-1.72.55c-.78.23-1.66.44-2.73.66h-.28l-.34.25c-4.91,4.38-15.59,10-22.49,12.51,0,0-.06,0-.12.01l-1.07.33-.28,2.97Zm26.53-8.67c-3.29,2.29-6.85,4.26-10.54,5.85l-8.23,3.15,7.47-.66,1.4-.21c3.38-.52,6.77-1.22,10.07-2.08l.24-.06,1.1-.31.09-1.15c.16-.88.17-2.15.26-3.42l.27-2.64-2.14,1.54Zm-68.59,1.34c9.73,0,20.35,3.99,25.81,6.36l1.51.62,2.1-21.82-1.01-.24-1.26-.32-1.65-.35-1.58,16.6s-.02.08-.04.12l-.06.26-.11.23s-.08.06-.13.08c-.06.02-.1.03-.15.03s-.09,0-.13-.02c-7.84-3.49-15.79-5.42-22.35-5.42-1.98,0-3.84.17-5.53.51l-.95.16-.38,3.73,1.53-.24c1.36-.19,2.84-.29,4.37-.29Zm42.4,3.74l1.79-.66c6.08-2.42,11.92-5.46,17.38-9.03l3.5-2.59-4.5.39c-4.4,0-9.31-.73-15.43-2.29l-1.36-.33-1.37,14.51Zm-31.72-7.26c3.81.87,7.56,2.08,11.16,3.59l1.49.63.33-3.67-.87-.81s-.09-.04-.13-.07c-6.79-6.18-14.62-11.37-19.96-13.23l-.38-.18h-.5c-1.57.24-3.13.58-4.65,1.03l-1.41.38-.34,3.26,1.23.47s0,0,.03.01c3.86,1.36,8.21,4.04,13.26,8.18l.04.05.34.33.37.04Zm-7.66-13.98l4.19,1.68.67.36c5.03,2.84,9.79,6.25,14.12,10.12l1.77,1.53,1.16-12.13-1.16-.15c-4.99-1.01-10.1-1.55-15.18-1.61h-2.3l-3.25.21Zm-8.47,13.57l1.56-.29c1.67-.27,3.41-.41,5.13-.41,1.05,0,2.12.05,3.17.15l4.46.38-3.65-2.55c-2.57-1.9-5.4-3.47-8.4-4.65l-1.46-.54-.8,7.89Z"/>
  </g>
</svg>