<?xml version="1.0" encoding="UTF-8"?>
<svg id="Layer_2" data-name="Layer 2" xmlns="http://www.w3.org/2000/svg" viewBox="0 0 129.67 129.67">
  <defs>
    <style>
      .cls-1 {
        fill: none;
        stroke: #db903b;
        stroke-miterlimit: 10;
      }
    </style>
  </defs>
  <g id="Layer1">
    <g>
      <path class="cls-1" d="m129.17,64.83c0,35.53-28.8,64.33-64.33,64.33S.5,100.36.5,64.83,29.3.5,64.83.5s64.33,28.8,64.33,64.33Z"/>
      <path class="cls-1" d="m57.59,64.9c-8.49-9.79-15.67-18.15-15.67-18.15l-4,3s-7.25-11.25-7.25-13.75.5-4.25,1.75-5.5"/>
      <path class="cls-1" d="m74.41,62.27c10.69,9.3,21.04,18.4,22.76,20.23,3.75,4,3.12,9.38.25,12.25l-.75.75c-2.88,2.88-8.25,3.5-12.25-.25-1.83-1.71-10.85-11.98-20.12-22.63"/>
      <path class="cls-1" d="m32.42,30.5c1.25-1.25,3-1.75,5.5-1.75s13.75,7.25,13.75,7.25l-3,4s8.31,7.16,17.83,15.42"/>
      <path class="cls-1" d="m92.25,90.25c1.28-1.28-.17-3.42-2.42-5.67s-2.58-2.67-4.08-4.17-3.58-2.42-4.33-1.67l-.75.75c-.75.75.17,2.83,1.67,4.33s1.92,1.83,4.17,4.08,4.38,3.7,5.67,2.42l.08-.08Z"/>
      <line class="cls-1" x1="67.62" y1="54.79" x2="50.87" y2="71.54"/>
      <path class="cls-1" d="m43.79,101.5c-2.7,0-5.37-.71-7.73-2.06-.64-.36-1.02-1.04-1.01-1.77.01-.73.43-1.4,1.07-1.74,2.49-1.3,6.11-5.42,6.32-6.59,0-1.13-.99-2.11-2.19-2.11-1.1.21-5.22,3.82-6.52,6.31-.34.65-1,1.06-1.74,1.07-.73,0-1.41-.37-1.77-1.01-1.34-2.36-2.06-5.03-2.06-7.73,0-8.62,7.01-15.62,15.62-15.62s15.62,7.01,15.62,15.62-7.01,15.62-15.62,15.62Zm-2.66-4.31c.87.21,1.76.31,2.66.31,6.41,0,11.62-5.21,11.62-11.62s-5.21-11.62-11.62-11.62-11.62,5.21-11.62,11.62c0,.9.11,1.79.31,2.66,2.29-2.6,5.55-5.3,7.77-5.3,3.41,0,6.19,2.78,6.19,6.19,0,2.22-2.7,5.48-5.3,7.77Z"/>
      <line class="cls-1" x1="64.38" y1="72.54" x2="58.12" y2="78.79"/>
      <line class="cls-1" x1="67.21" y1="55.21" x2="72.21" y2="50.21"/>
      <path class="cls-1" d="m86.42,58.87c-8.62,0-15.62-7.01-15.62-15.62s7.01-15.62,15.62-15.62c2.7,0,5.37.71,7.73,2.06.64.36,1.02,1.04,1.01,1.77-.01.73-.43,1.4-1.07,1.74-2.49,1.3-6.1,5.42-6.32,6.59,0,1.13.99,2.11,2.19,2.11,1.1-.21,5.22-3.82,6.52-6.31.34-.65,1-1.06,1.74-1.07.74.02,1.41.37,1.77,1.01,1.34,2.36,2.06,5.03,2.06,7.73,0,8.62-7.01,15.62-15.62,15.62Zm0-27.25c-6.41,0-11.62,5.21-11.62,11.62s5.21,11.62,11.62,11.62,11.62-5.21,11.62-11.62c0-.9-.11-1.79-.31-2.66-2.29,2.6-5.55,5.3-7.77,5.3-3.41,0-6.19-2.78-6.19-6.19,0-2.22,2.7-5.48,5.3-7.77-.87-.21-1.76-.31-2.66-.31Z"/>
      <line class="cls-1" x1="63.21" y1="73.71" x2="79.46" y2="57.46"/>
      <line class="cls-1" x1="82.33" y1="69.83" x2="71.33" y2="80.83"/>
      <line class="cls-1" x1="79.75" y1="67.25" x2="68.75" y2="78.25"/>
    </g>
  </g>
</svg>