<?xml version="1.0" encoding="UTF-8"?>
<svg id="Layer_2" data-name="Layer 2" xmlns="http://www.w3.org/2000/svg" viewBox="0 0 129.67 129.66">
  <defs>
    <style>
      .cls-1 {
        fill: #808075;
        stroke-width: 0px;
      }

      .cls-2 {
        fill: none;
        stroke: #808075;
        stroke-miterlimit: 10;
      }
    </style>
  </defs>
  <g id="Layer_2-2" data-name="Layer 2">
    <g id="Layer1">
      <g>
        <path class="cls-2" d="m129.17,64.83c0,35.53-28.8,64.33-64.33,64.33S.5,100.36.5,64.83,29.3.5,64.83.5s64.33,28.8,64.33,64.33h0Z"/>
        <circle class="cls-2" cx="63.92" cy="50.25" r="19.5"/>
        <path class="cls-2" d="m63.92,82.59c-2.18,0-3.97-1.02-5.54-1.91-.85-.48-1.64-.94-2.31-1.12-.73-.19-1.68-.2-2.69-.21-1.79-.02-3.81-.04-5.63-1.09-1.85-1.07-2.88-2.83-3.79-4.38-.5-.86-.98-1.67-1.49-2.18s-1.32-.99-2.18-1.49c-1.55-.91-3.3-1.94-4.38-3.79-1.06-1.83-1.08-3.85-1.09-5.63,0-1.01-.02-1.96-.21-2.69-.18-.67-.63-1.47-1.12-2.31-.9-1.58-1.91-3.36-1.91-5.54s1.02-3.97,1.91-5.54c.48-.85.94-1.64,1.12-2.31.19-.73.2-1.68.21-2.69.02-1.79.04-3.81,1.09-5.64,1.07-1.85,2.83-2.88,4.38-3.79.86-.5,1.67-.98,2.18-1.49s.99-1.32,1.49-2.18c.91-1.55,1.94-3.3,3.79-4.38,1.83-1.06,3.85-1.08,5.63-1.09,1.01,0,1.96-.02,2.69-.21.67-.18,1.47-.63,2.31-1.12,1.58-.9,3.36-1.91,5.54-1.91s3.97,1.02,5.54,1.91c.85.48,1.64.94,2.31,1.11.72.19,1.68.2,2.69.21,1.79.02,3.81.04,5.64,1.09,1.85,1.07,2.88,2.83,3.79,4.38.5.86.98,1.67,1.49,2.18s1.32.99,2.18,1.49c1.55.91,3.31,1.94,4.38,3.79,1.06,1.82,1.08,3.85,1.09,5.64,0,1.01.02,1.96.21,2.69.18.67.63,1.47,1.12,2.31.9,1.58,1.91,3.36,1.91,5.54s-1.02,3.97-1.91,5.54c-.48.85-.94,1.64-1.12,2.31-.19.72-.2,1.68-.21,2.69-.02,1.79-.04,3.81-1.09,5.64-1.07,1.85-2.83,2.88-4.38,3.79-.86.5-1.67.98-2.18,1.49s-.99,1.32-1.49,2.18c-.91,1.55-1.94,3.31-3.79,4.38-1.82,1.06-3.85,1.08-5.64,1.09-1.01,0-1.96.02-2.69.21-.67.18-1.47.63-2.31,1.12-1.58.9-3.36,1.91-5.54,1.91Zm0-59.69c-.86,0-1.93.61-3.07,1.26-1.08.62-2.2,1.25-3.5,1.6-1.34.36-2.71.37-3.93.38-1.28.01-2.49.02-3.18.42-.71.41-1.33,1.46-1.98,2.58-.61,1.04-1.3,2.22-2.27,3.19s-2.15,1.66-3.19,2.27c-1.12.65-2.17,1.27-2.58,1.98-.4.69-.41,1.9-.42,3.18,0,1.22-.02,2.59-.38,3.93-.34,1.29-.98,2.41-1.6,3.5-.65,1.14-1.26,2.21-1.26,3.07s.61,1.93,1.26,3.07c.62,1.08,1.25,2.2,1.6,3.5.36,1.34.37,2.71.38,3.93,0,1.28.02,2.49.42,3.18.41.71,1.46,1.33,2.58,1.98,1.04.61,2.22,1.3,3.19,2.27.97.97,1.66,2.15,2.27,3.19.65,1.12,1.27,2.17,1.98,2.58.69.4,1.9.41,3.18.42,1.22.01,2.59.02,3.93.38,1.29.34,2.41.98,3.5,1.6,1.14.65,2.21,1.26,3.07,1.26s1.93-.61,3.07-1.26c1.08-.62,2.2-1.25,3.5-1.6,1.34-.36,2.71-.37,3.93-.38,1.28-.01,2.49-.02,3.18-.42.71-.41,1.33-1.46,1.98-2.58.61-1.04,1.3-2.22,2.27-3.19.97-.97,2.15-1.66,3.19-2.27,1.12-.66,2.17-1.27,2.58-1.98.4-.69.41-1.9.42-3.18.01-1.22.02-2.59.38-3.93.34-1.29.98-2.41,1.6-3.5.65-1.14,1.26-2.21,1.26-3.07s-.61-1.93-1.26-3.07c-.62-1.08-1.25-2.2-1.6-3.5-.36-1.34-.37-2.71-.38-3.93-.01-1.28-.02-2.49-.42-3.18-.41-.71-1.46-1.33-2.58-1.98-1.04-.61-2.22-1.3-3.18-2.27-.97-.97-1.66-2.15-2.27-3.19-.65-1.12-1.27-2.17-1.98-2.58-.69-.4-1.9-.41-3.18-.42-1.22-.01-2.59-.02-3.93-.38-1.29-.34-2.41-.98-3.5-1.6-1.14-.65-2.21-1.26-3.07-1.26h-.01Z"/>
        <polyline class="cls-2" points="40.28 70.21 28.42 102.5 42.92 99.25"/>
        <polyline class="cls-2" points="28.42 102.5 42.92 99.25 50.42 109.5 60.17 81.75"/>
        <polyline class="cls-2" points="85.9 71.16 97.42 102.5 82.92 99.25"/>
        <polyline class="cls-2" points="97.42 102.5 82.92 99.25 75.42 109.5 65.88 82.35"/>
      </g>
    </g>
    <g>
      <path class="cls-1" d="m50.67,57.97c2.21-2.38,4.4-4.78,6.62-7.16,1.84-2,2.73-3.62,2.73-4.89,0-1.54-1-3.43-3.78-3.43-1.67,0-3,1.13-3.83,2.03-.22.22-.51.22-.73,0l-.54-.51c-.16-.19-.22-.49-.03-.7,0,0,1.92-2.65,5.13-2.65,3.86,0,5.83,2.46,5.83,5.21,0,2.38-1.51,4.13-3.38,6.13-1.73,1.84-3.46,3.7-5.19,5.54h7.94c.27,0,.51.24.51.51v.73c0,.27-.24.51-.51.51h-10.26c-.3,0-.51-.24-.51-.51v-.81Z"/>
      <path class="cls-1" d="m65.31,56.41c.22-.19.41-.41.62-.59.24-.22.46-.27.67.03.27.38,1.57,2,4,2,2.59,0,4.24-2.3,4.24-4.43s-1.35-3.89-4.24-3.89h-4.11c-.54,0-.84-.51-.84-.95v-7.13c0-.27.22-.51.51-.51h8.16c.3,0,.51.24.51.51v.78c0,.27-.22.51-.51.51h-6.86v4.97h3.13c4.08,0,6.24,2.13,6.24,5.67s-2.62,6.18-6.27,6.18c-3,0-4.54-1.43-5.21-2.24-.35-.41-.38-.59-.05-.92Z"/>
    </g>
  </g>
</svg>