<?xml version="1.0" encoding="UTF-8"?>
<svg id="Layer_2" data-name="Layer 2" xmlns="http://www.w3.org/2000/svg" viewBox="0 0 129.67 129.67">
  <defs>
    <style>
      .cls-1 {
        fill: none;
        stroke: #808075;
        stroke-miterlimit: 10;
      }
    </style>
  </defs>
  <g id="Layer1">
    <g>
      <path class="cls-1" d="m129.17,64.83c0,35.53-28.8,64.33-64.33,64.33S.5,100.36.5,64.83,29.3.5,64.83.5s64.33,28.8,64.33,64.33Z"/>
      <circle class="cls-1" cx="63.92" cy="50.25" r="19.5"/>
      <path class="cls-1" d="m63.92,82.59c-2.18,0-3.97-1.02-5.54-1.91-.85-.48-1.64-.94-2.31-1.12-.73-.19-1.68-.2-2.69-.21-1.79-.02-3.81-.04-5.63-1.09-1.85-1.07-2.88-2.83-3.79-4.38-.5-.86-.98-1.67-1.49-2.18s-1.32-.99-2.18-1.49c-1.55-.91-3.3-1.94-4.38-3.79-1.06-1.83-1.08-3.85-1.09-5.63,0-1.01-.02-1.96-.21-2.69-.18-.67-.63-1.47-1.12-2.31-.9-1.58-1.91-3.36-1.91-5.54s1.02-3.97,1.91-5.54c.48-.85.94-1.64,1.12-2.31.19-.73.2-1.68.21-2.69.02-1.79.04-3.81,1.09-5.64,1.07-1.85,2.83-2.88,4.38-3.79.86-.5,1.67-.98,2.18-1.49s.99-1.32,1.49-2.18c.91-1.55,1.94-3.3,3.79-4.38,1.83-1.06,3.85-1.08,5.63-1.09,1.01,0,1.96-.02,2.69-.21.67-.18,1.47-.63,2.31-1.12,1.58-.9,3.36-1.91,5.54-1.91s3.97,1.02,5.54,1.91c.85.48,1.64.94,2.31,1.11.72.19,1.68.2,2.69.21,1.79.02,3.81.04,5.64,1.09,1.85,1.07,2.88,2.83,3.79,4.38.5.86.98,1.67,1.49,2.18s1.32.99,2.18,1.49c1.55.91,3.31,1.94,4.38,3.79,1.06,1.82,1.08,3.85,1.09,5.64,0,1.01.02,1.96.21,2.69.18.67.63,1.47,1.12,2.31.9,1.58,1.91,3.36,1.91,5.54s-1.02,3.97-1.91,5.54c-.48.85-.94,1.64-1.12,2.31-.19.72-.2,1.68-.21,2.69-.02,1.79-.04,3.81-1.09,5.64-1.07,1.85-2.83,2.88-4.38,3.79-.86.5-1.67.98-2.18,1.49s-.99,1.32-1.49,2.18c-.91,1.55-1.94,3.31-3.79,4.38-1.82,1.06-3.85,1.08-5.64,1.09-1.01,0-1.96.02-2.69.21-.67.18-1.47.63-2.31,1.12-1.58.9-3.36,1.91-5.54,1.91Zm0-59.69c-.86,0-1.93.61-3.07,1.26-1.08.62-2.2,1.25-3.5,1.6-1.34.36-2.71.37-3.93.38-1.28.01-2.49.02-3.18.42-.71.41-1.33,1.46-1.98,2.58-.61,1.04-1.3,2.22-2.27,3.19-.97.97-2.15,1.66-3.19,2.27-1.12.65-2.17,1.27-2.58,1.98-.4.69-.41,1.9-.42,3.18-.01,1.22-.02,2.59-.38,3.93-.34,1.29-.98,2.41-1.6,3.5-.65,1.14-1.26,2.21-1.26,3.07s.61,1.93,1.26,3.07c.62,1.08,1.25,2.2,1.6,3.5.36,1.34.37,2.71.38,3.93.01,1.28.02,2.49.42,3.18.41.71,1.46,1.33,2.58,1.98,1.04.61,2.22,1.3,3.19,2.27.97.97,1.66,2.15,2.27,3.19.65,1.12,1.27,2.17,1.98,2.58.69.4,1.9.41,3.18.42,1.22.01,2.59.02,3.93.38,1.29.34,2.41.98,3.5,1.6,1.14.65,2.21,1.26,3.07,1.26s1.93-.61,3.07-1.26c1.08-.62,2.2-1.25,3.5-1.6,1.34-.36,2.71-.37,3.93-.38,1.28-.01,2.49-.02,3.18-.42.71-.41,1.33-1.46,1.98-2.58.61-1.04,1.3-2.22,2.27-3.19.97-.97,2.15-1.66,3.19-2.27,1.12-.66,2.17-1.27,2.58-1.98.4-.69.41-1.9.42-3.18.01-1.22.02-2.59.38-3.93.34-1.29.98-2.41,1.6-3.5.65-1.14,1.26-2.21,1.26-3.07s-.61-1.93-1.26-3.07c-.62-1.08-1.25-2.2-1.6-3.5-.36-1.34-.37-2.71-.38-3.93-.01-1.28-.02-2.49-.42-3.18-.41-.71-1.46-1.33-2.58-1.98-1.04-.61-2.22-1.3-3.18-2.27-.97-.97-1.66-2.15-2.27-3.19-.65-1.12-1.27-2.17-1.98-2.58-.69-.4-1.9-.41-3.18-.42-1.22-.01-2.59-.02-3.93-.38-1.29-.34-2.41-.98-3.5-1.6-1.14-.65-2.21-1.26-3.07-1.26Z"/>
      <path class="cls-1" d="m60.13,57.29l-5.29-5.29c-.78-.78-.78-2.05,0-2.83.78-.78,2.05-.78,2.83,0l2.46,2.46,10.34-10.34c.78-.78,2.05-.78,2.83,0,.78.78.78,2.05,0,2.83l-13.16,13.16Z"/>
      <polyline class="cls-1" points="40.28 70.21 28.42 102.5 42.92 99.25"/>
      <polyline class="cls-1" points="28.42 102.5 42.92 99.25 50.42 109.5 60.17 81.75"/>
      <polyline class="cls-1" points="85.9 71.16 97.42 102.5 82.92 99.25"/>
      <polyline class="cls-1" points="97.42 102.5 82.92 99.25 75.42 109.5 65.88 82.35"/>
    </g>
  </g>
</svg>