<?xml version="1.0" encoding="UTF-8"?>
<svg id="Layer_2" data-name="Layer 2" xmlns="http://www.w3.org/2000/svg" viewBox="0 0 497.89 50.75">
  <defs>
    <style>
      .cls-1 {
        fill: #7cad99;
        stroke-width: 0px;
      }
    </style>
  </defs>
  <g id="Layer_1-2" data-name="Layer 1">
    <g>
      <path class="cls-1" d="m56.58,49.43h-19.05c-2.87-4.41-5.46-8.09-7.76-11.05-2.31-2.96-5.25-6.68-8.85-11.15h-1.76v15.12c0,.81.15,1.5.44,2.07.29.57.88,1.04,1.76,1.42.41.18,1.01.36,1.81.54s1.6.32,2.39.41v2.64H0v-2.64c.61-.04,1.47-.11,2.59-.2,1.12-.09,1.9-.23,2.36-.41.81-.32,1.38-.76,1.7-1.32.32-.57.47-1.28.47-2.14V8.61c0-.79-.14-1.46-.41-2s-.86-1.03-1.76-1.46c-.7-.32-1.55-.58-2.54-.78-1-.2-1.8-.34-2.41-.41V1.32h26.41v2.64c-.7.07-1.54.16-2.53.29-.98.12-1.83.3-2.53.53-.88.29-1.47.76-1.76,1.39-.29.63-.44,1.33-.44,2.1v16.21h1.42c1.76-1.6,3.82-3.54,6.17-5.8s4.17-4.11,5.46-5.56c1.81-2.01,3.14-3.6,3.98-4.78.85-1.17,1.27-2.19,1.27-3.05,0-.38-.41-.68-1.22-.88-.81-.2-2.06-.35-3.73-.44V1.32h20.92v2.64c-2.53.27-4.65.73-6.37,1.37-1.72.64-3.42,1.72-5.11,3.24-2.41,2.17-4.4,4.05-5.97,5.64-1.57,1.59-3.58,3.63-6.04,6.11,2.17,2.65,4.77,5.89,7.82,9.72,3.05,3.83,6.08,7.57,9.11,11.21.77.93,1.65,1.81,2.64,2.66s2.09,1.53,3.28,2.05c.56.25,1.21.44,1.93.58.72.14,1.34.22,1.86.24v2.64Z"/>
      <path class="cls-1" d="m83.96,49.43h-26.68v-2.64c.61-.04,1.51-.11,2.7-.2,1.19-.09,2.01-.23,2.46-.41.84-.34,1.41-.78,1.71-1.34.31-.55.46-1.26.46-2.12V8.61c0-.77-.15-1.45-.44-2.03-.29-.59-.87-1.06-1.73-1.42-.54-.23-1.35-.46-2.41-.7-1.06-.24-1.98-.4-2.75-.49V1.32h26.68v2.64c-.68.07-1.53.16-2.54.29s-1.88.3-2.58.53c-.88.29-1.47.75-1.76,1.37-.29.62-.44,1.33-.44,2.12v34.07c0,.81.15,1.51.46,2.08.3.58.89,1.04,1.75,1.41.47.2,1.26.4,2.36.59,1.1.19,2.02.31,2.76.36v2.64Z"/>
      <path class="cls-1" d="m144.39,3.97c-.63.07-1.54.19-2.71.37s-2.24.62-3.19,1.32c-.84.61-1.43,1.66-1.78,3.14s-.53,3.66-.53,6.53v34.38h-6.03l-29.97-37.19v22.58c0,2.8.19,4.93.56,6.39.37,1.46.98,2.53,1.81,3.2.61.5,1.58.94,2.92,1.32,1.33.38,2.4.64,3.19.78v2.64h-20.68v-2.64c.88-.07,1.89-.23,3.03-.49,1.14-.26,2.1-.66,2.86-1.2.88-.66,1.49-1.64,1.81-2.97s.49-3.54.49-6.66V12.68c0-1.13-.18-2.2-.53-3.2-.35-1-.9-1.87-1.64-2.59-.79-.77-1.7-1.37-2.73-1.81-1.03-.44-2.2-.79-3.51-1.03V1.32h18.11l26.3,32.53V15.66c0-2.89-.19-5.04-.58-6.46-.38-1.41-1-2.46-1.83-3.13-.66-.52-1.63-.96-2.92-1.34-1.29-.37-2.33-.63-3.12-.76V1.32h20.65v2.64Z"/>
      <path class="cls-1" d="m201.67,29.87c-.7.07-1.32.15-1.86.24-.54.09-1.22.27-2.03.54-.93.29-1.54.78-1.83,1.46-.29.68-.44,1.39-.44,2.14v5.59c0,1.13.01,2.04.03,2.73.02.69.06,1.54.1,2.56-2.26,1.36-5.6,2.63-10.02,3.83-4.42,1.2-8.48,1.8-12.19,1.8-3.48,0-6.75-.53-9.8-1.59-3.05-1.06-5.73-2.66-8.04-4.78-2.31-2.1-4.12-4.72-5.44-7.84-1.32-3.12-1.98-6.69-1.98-10.72,0-3.75.62-7.23,1.86-10.42,1.24-3.19,3.04-5.94,5.39-8.24,2.31-2.28,5.11-4.05,8.42-5.29s6.98-1.87,11-1.87c2.73,0,5.27.34,7.59,1.02,2.33.68,4.25,1.4,5.76,2.17l2.1-1.86h2.95l.31,17.56h-2.98c-1.72-5.28-3.77-9.2-6.17-11.76-2.4-2.56-5.42-3.84-9.09-3.84-4.34,0-7.69,1.9-10.05,5.7-2.36,3.8-3.54,9.04-3.54,15.71,0,7.08,1.16,12.62,3.48,16.63,2.32,4,5.6,6,9.85,6,1.99,0,3.76-.3,5.31-.9,1.55-.6,2.75-1.29,3.61-2.08v-9.76c0-.81-.15-1.5-.44-2.05-.29-.55-.88-1.03-1.76-1.44-.68-.32-1.53-.58-2.54-.78-1.02-.2-1.86-.35-2.54-.44v-2.64h24.99v2.64Z"/>
      <path class="cls-1" d="m225.01,50.75c-2.94,0-5.68-.37-8.22-1.1-2.54-.73-4.7-1.6-6.46-2.59l-2.34,2.37h-2.88l-.44-17.39h2.92c.66,1.65,1.49,3.4,2.51,5.23s2.19,3.48,3.53,4.93c1.38,1.52,2.92,2.75,4.63,3.7,1.71.95,3.7,1.43,5.98,1.43,3.07,0,5.43-.75,7.07-2.26,1.64-1.5,2.46-3.4,2.46-5.68,0-1.88-.7-3.46-2.08-4.73-1.39-1.28-3.54-2.38-6.46-3.31-1.9-.61-3.64-1.18-5.24-1.7-1.59-.52-3.09-1.06-4.49-1.6-3.23-1.29-5.63-3.13-7.2-5.53-1.57-2.4-2.36-5.08-2.36-8.05,0-1.88.41-3.68,1.22-5.41.81-1.73,2-3.29,3.56-4.67,1.49-1.29,3.4-2.34,5.73-3.16,2.33-.81,4.86-1.22,7.59-1.22s5.16.37,7.49,1.12c2.33.75,4.16,1.49,5.49,2.24l2.07-2.03h2.95l.27,16.41h-2.92c-.68-1.77-1.48-3.57-2.39-5.42-.92-1.85-1.88-3.38-2.9-4.6-1.11-1.31-2.38-2.36-3.83-3.14-1.45-.78-3.14-1.17-5.09-1.17-2.44,0-4.44.69-5.98,2.07-1.55,1.38-2.32,3.09-2.32,5.13,0,1.92.67,3.5,2.02,4.72,1.34,1.22,3.44,2.3,6.29,3.23,1.67.57,3.38,1.13,5.12,1.7,1.74.57,3.29,1.11,4.64,1.63,3.28,1.27,5.77,3.02,7.48,5.25,1.71,2.23,2.56,5,2.56,8.3,0,2.08-.49,4.1-1.46,6.04-.97,1.95-2.28,3.57-3.93,4.85-1.81,1.43-3.9,2.52-6.27,3.29-2.37.77-5.14,1.15-8.31,1.15Z"/>
      <path class="cls-1" d="m327.75,4.03c-.7.07-1.4.22-2.1.46-.7.24-1.39.54-2.07.9-1.04.59-1.78,1.23-2.22,1.93-.44.7-.84,1.55-1.2,2.54-1.24,3.44-3.16,8.94-5.75,16.51-2.59,7.57-5.28,15.44-8.09,23.6h-6.85l-12.67-35.74-11.44,35.74h-6.84c-3.77-10.98-6.67-19.44-8.68-25.38-2.01-5.93-3.71-10.91-5.09-14.93-.43-1.22-.92-2.11-1.46-2.66-.54-.55-1.24-1.11-2.1-1.68-.61-.41-1.26-.71-1.95-.9-.69-.19-1.49-.34-2.39-.46V1.32h25.66v2.58c-1.51.18-2.64.36-3.38.53-.74.17-1.33.35-1.76.53-.41.18-.65.37-.75.58-.09.2-.14.38-.14.54,0,.32.04.62.12.92.08.29.16.63.25,1.02.54,1.76,1.64,5.1,3.29,10.02,1.65,4.92,3.69,11.03,6.1,18.32l10.96-35.02h7.19l12.67,36.14c1.88-5.81,3.37-10.55,4.49-14.24,1.12-3.68,2.06-6.84,2.83-9.46.45-1.6.81-2.95,1.08-4.04.27-1.08.41-2.02.41-2.81,0-.47-.22-.88-.66-1.22-.44-.34-1.03-.63-1.78-.88-.63-.2-1.45-.37-2.45-.49-1-.12-1.88-.22-2.62-.29V1.32h19.36v2.71Z"/>
      <path class="cls-1" d="m373.94,6.68c2.37,2.17,4.25,4.79,5.64,7.87,1.39,3.07,2.09,6.58,2.09,10.51,0,3.5-.59,6.84-1.76,10-1.18,3.16-2.87,5.89-5.09,8.17-2.33,2.37-5.06,4.22-8.2,5.54s-6.88,1.98-11.22,1.98c-3.5,0-6.81-.58-9.93-1.73-3.12-1.15-5.87-2.83-8.24-5.02-2.35-2.15-4.22-4.76-5.59-7.83-1.38-3.07-2.07-6.5-2.07-10.27s.67-7.5,2.02-10.7c1.34-3.2,3.19-5.94,5.54-8.22,2.33-2.24,5.09-3.96,8.29-5.17,3.2-1.21,6.61-1.81,10.22-1.81s6.97.59,10.12,1.76c3.15,1.18,5.88,2.81,8.19,4.92Zm-8.71,34.44c1.02-2.06,1.75-4.39,2.2-6.99.45-2.6.68-5.55.68-8.83,0-2.78-.2-5.49-.59-8.13-.4-2.64-1.07-4.99-2.02-7.05-.97-2.06-2.26-3.71-3.86-4.96-1.6-1.25-3.61-1.87-6-1.87-4.09,0-7.2,1.94-9.32,5.82-2.12,3.88-3.19,9.37-3.19,16.45,0,3.01.23,5.85.69,8.52.46,2.67,1.19,5,2.19,6.99,1.02,2.01,2.31,3.58,3.87,4.7,1.56,1.12,3.48,1.68,5.76,1.68s4.16-.57,5.76-1.7c1.6-1.13,2.88-2.68,3.83-4.65Z"/>
      <path class="cls-1" d="m431.56,6.68c2.37,2.17,4.25,4.79,5.64,7.87,1.39,3.07,2.09,6.58,2.09,10.51,0,3.5-.59,6.84-1.76,10-1.18,3.16-2.87,5.89-5.09,8.17-2.33,2.37-5.06,4.22-8.2,5.54s-6.88,1.98-11.22,1.98c-3.5,0-6.81-.58-9.93-1.73-3.12-1.15-5.87-2.83-8.24-5.02-2.35-2.15-4.22-4.76-5.59-7.83-1.38-3.07-2.07-6.5-2.07-10.27s.67-7.5,2.02-10.7c1.34-3.2,3.19-5.94,5.54-8.22,2.33-2.24,5.09-3.96,8.29-5.17,3.2-1.21,6.61-1.81,10.22-1.81s6.97.59,10.12,1.76c3.15,1.18,5.88,2.81,8.19,4.92Zm-8.71,34.44c1.02-2.06,1.75-4.39,2.2-6.99.45-2.6.68-5.55.68-8.83,0-2.78-.2-5.49-.59-8.13-.4-2.64-1.07-4.99-2.02-7.05-.97-2.06-2.26-3.71-3.86-4.96-1.6-1.25-3.61-1.87-6-1.87-4.09,0-7.2,1.94-9.32,5.82-2.12,3.88-3.19,9.37-3.19,16.45,0,3.01.23,5.85.69,8.52.46,2.67,1.19,5,2.19,6.99,1.02,2.01,2.31,3.58,3.87,4.7,1.56,1.12,3.48,1.68,5.76,1.68s4.16-.57,5.76-1.7c1.6-1.13,2.88-2.68,3.83-4.65Z"/>
      <path class="cls-1" d="m488.06,6.27c2.94,1.92,5.31,4.48,7.12,7.68s2.71,7.11,2.71,11.75c0,4.07-.81,7.61-2.42,10.63-1.62,3.02-3.76,5.49-6.42,7.41-2.71,1.92-5.79,3.35-9.24,4.29-3.45.94-7.06,1.41-10.83,1.41h-24.24v-2.64c.72-.02,1.63-.09,2.71-.2,1.08-.11,1.81-.25,2.17-.41.81-.34,1.38-.8,1.7-1.37.32-.58.47-1.27.47-2.08V8.61c0-.77-.15-1.46-.44-2.08-.29-.62-.87-1.12-1.73-1.51-.86-.38-1.77-.64-2.73-.78-.96-.13-1.7-.23-2.22-.27V1.32h25.6c2.73,0,5.66.35,8.78,1.05,3.12.7,6.12,2,9.02,3.9Zm-6.92,34.48c1.11-1.81,1.92-3.96,2.42-6.46.51-2.5.76-5.37.76-8.63s-.34-6.09-1.02-8.71c-.68-2.62-1.67-4.86-2.98-6.71-1.31-1.85-2.94-3.29-4.9-4.31-1.96-1.02-4.18-1.53-6.66-1.53-.79,0-1.69.02-2.7.05-1.01.03-1.76.06-2.25.08v36.51c0,.81.11,1.53.32,2.15.21.62.58,1.17,1.1,1.64.52.47,1.16.84,1.92,1.1s1.75.39,2.97.39c2.55,0,4.75-.47,6.58-1.42,1.83-.95,3.31-2.34,4.44-4.17Z"/>
    </g>
  </g>
</svg>