<svg xmlns="http://www.w3.org/2000/svg" width="84.13" height="69.84" viewBox="0 0 84.13 69.84"><defs><style>.cls-1{fill:#1d1d1b;}.cls-2{fill:#e20613;}</style></defs><title>makeitsafe</title><g id="Layer_2" data-name="Layer 2"><g id="Guides"><path class="cls-1" d="M77.08,20.73a20.52,20.52,0,0,0-12.3-18.8A2.48,2.48,0,0,1,63,4.12V6.8a2.49,2.49,0,0,1,0,4.8v2.68a2.48,2.48,0,0,1,0,4.79v2.68a2.48,2.48,0,0,1,.94,4.3,6.14,6.14,0,0,0,.4.53,6.92,6.92,0,0,0,1.3,1.21A2.5,2.5,0,0,1,70,29.19h.54c.57,0,1.86-.13,1.86-.13h3.77l.87-.87V21.09C77.06,21,77.08,20.85,77.08,20.73Z"/><path class="cls-1" d="M74.45,28.84,72.61,30.4s-1.41.14-2,.14h0l-.77,0a2.49,2.49,0,0,1-4.7-1.14c0-.11,0-.22,0-.34a8.11,8.11,0,0,1-1.8-1.6c-.22-.28-.42-.56-.6-.83a2.22,2.22,0,0,1-.37,0,2.49,2.49,0,0,1-.67-4.89V19.07a2.49,2.49,0,0,1,0-4.79V11.6a2.49,2.49,0,0,1,0-4.8V4.12a2.48,2.48,0,0,1-1.82-2.39,2.52,2.52,0,0,1,.31-1.2A19.89,19.89,0,0,0,56.56.21,20.53,20.53,0,0,0,37.79,29c.73-1,1.56-2.21,1.67-2.4.34-.55.95-1.18,1-1.35a3.23,3.23,0,0,0,.26-.92c.06-.3-.42-1.43-.38-1.86a6.76,6.76,0,0,0,.06-1.11,5.25,5.25,0,0,1,.19-1.71,7.65,7.65,0,0,0,.36-2.3,5.1,5.1,0,0,1,.08-1.48c.07-.34.15-.68.15-.68a11.73,11.73,0,0,1-.31-1.51,1.07,1.07,0,0,1,1-.72,2.69,2.69,0,0,1,1.56.76A4.12,4.12,0,0,1,44,14.82a1.62,1.62,0,0,1,.15.92v.06h0a6.65,6.65,0,0,0,0,1.21c.07.24.19.87.24.94s0,.29,0,.29l-.16-.07a5.72,5.72,0,0,1,.67.49,5,5,0,0,1,.6.75,3.09,3.09,0,0,1,.24.7c0,.26.32,1.24.32,1.24a6.19,6.19,0,0,1,0-1,1.75,1.75,0,0,0-.41-1.24,5.14,5.14,0,0,0-1.06-.85,2.38,2.38,0,0,0,0-.76,5.62,5.62,0,0,1-.18-1.22,2.67,2.67,0,0,0,0-.42l.69-.79c.42-.48,1.11-1.25,1.27-1.48A2.12,2.12,0,0,1,47.4,13a18.81,18.81,0,0,0,1.79-.79c.46-.2.7-.49,1-.56s1.45-.74,2.1-.55a1.19,1.19,0,0,1,.4,1.82,6.42,6.42,0,0,1-1.58,1s-.72.77-1,1-1.26.83-1.26.83-.34.52-.49.7l.45-.27c.17-.1.55-.48.78-.62a4.86,4.86,0,0,1,1.06-.62c.46-.15,1.29-.45,1.54-.54s.71-.22,1.29-.47.92-.47,1.23-.63,1.4-.33,1.8.22a1.41,1.41,0,0,1-.25,1.75,6.79,6.79,0,0,1-1.7.84c-.1,0-1.1.72-1.29.82s-1.11.53-1.24.62a2.84,2.84,0,0,0-.68.9,11.38,11.38,0,0,1,1.12-.5c.38-.14,1.15-.39,1.58-.54s1.11-.5,1.38-.59a9,9,0,0,1,1-.28,1.45,1.45,0,0,1,1.35.53c.25.36-.08,1.09-.58,1.44a7.3,7.3,0,0,1-1.86.87s-1.21.68-1.43.75-1.5,1-1.65,1.08a2.51,2.51,0,0,0-.38.39l-.11.26s0,.06.38,0a6.5,6.5,0,0,1,1.14-.12,7.13,7.13,0,0,0,1.23-.3c.24-.07.5-.08.71-.16a3.35,3.35,0,0,1,.87-.1,1.19,1.19,0,0,1,1,.54,1,1,0,0,1-.46,1.19c-.42.35-.77.29-1,.43a3.86,3.86,0,0,1-.84.25c-.34.09-1.12.36-1.31.42s-1.54,1.12-1.78,1.3-.46.74-.66.95-.51,1.39-1,2.07a5.53,5.53,0,0,1-2,1.37,2.41,2.41,0,0,0-1.09.92c-.15.24-.53,1.1-.82,1.59L43.4,36.47a20.45,20.45,0,0,0,13.07,4.78v0H77.06v-13Z"/><path class="cls-1" d="M2.9,46.75v1.46c.64-1.39,1.8-1.63,3.21-1.63s3,.29,3.71,1.75c.45-1.53,2-1.75,3.39-1.75,2.43,0,4.26.82,4.26,3.52v4.49h-2.9V50.44c0-1.21-.36-1.61-1.88-1.61h-.3c-.73,0-1.65.07-2,.79a2.77,2.77,0,0,0-.18,1.22v3.75H7.28v-4.1c0-1.34-.48-1.66-1.83-1.66H5.2c-1.27,0-2.3.18-2.3,1.66v4.1H0V46.75Z"/><path class="cls-1" d="M20.06,49c0-2,1.81-2.28,3.44-2.31,1,0,2-.07,3-.07,2,0,3.78.34,3.78,2.72v5.29H27.39V53.31c-.5,1.43-2.22,1.44-3.49,1.44h-.54c-2.06,0-3.64-.15-3.64-2.65,0-1.69,1-2.43,2.6-2.5.59-.05,1.19-.05,1.78-.05H25a2.69,2.69,0,0,1,2.43.84v-.86c0-1-.42-1.12-1.33-1.19l-1.34,0-1,0c-.45,0-.8.1-.82.62Zm4,3.95h.49a13.4,13.4,0,0,0,2-.12c.52-.08.76-.3.79-.82,0-.71-.74-.79-1.29-.79l-1.66,0c-.59,0-1.85,0-1.85.85S23.41,52.91,24.1,52.91Z"/><path class="cls-1" d="M35.66,49.28h.64l2.77-2.53H43l-4.08,3.57,4.72,4.27H39.69l-3.24-3.24h-.79v3.24h-2.9V43.39h2.9Z"/><path class="cls-1" d="M55.7,52c-.05,2.63-2.25,2.73-4.36,2.73-.94,0-1.87,0-2.81-.1-2.85-.2-3.47-1.54-3.47-4.21s.84-3.69,3.46-3.81c.92-.05,1.83-.05,2.75-.05a5.72,5.72,0,0,1,3.49.76c1.13.95.86,2.56.94,3.87H48c0,1.19.36,1.66,1.58,1.68.56,0,1.09,0,1.65,0s1.22-.05,1.44-.33a1.06,1.06,0,0,0,.13-.57Zm-4.65-3.69H50c-.86,0-2,0-2,1.15a1.55,1.55,0,0,0,0,.22h4.82C52.83,48.48,52.16,48.33,51.05,48.33Z"/><path class="cls-1" d="M65.48,45.51h-2.9V43.39h2.9Zm0,9.08h-2.9V46.75h2.9Z"/><path class="cls-1" d="M76.61,48.68H71.88v2.5c0,.94.2,1.41,1.22,1.41.83,0,1.25-.22,1.25-1.06v-.35h2.26c0,2.68-.5,3.57-3.47,3.57-2.13,0-4.25-.06-4.25-2.71V48.68H67.4V46.75h1.49V44.84h3v1.91h4.73Z"/><path class="cls-1" d="M39.09,64a.52.52,0,0,0-.46-.44,4.65,4.65,0,0,0-1.09-.1H36.28a5.6,5.6,0,0,0-1.09.07.67.67,0,0,0-.6.62c0,.48.52.53,1,.53,1.08,0,2.13,0,3.21,0,1.78,0,3.76,0,3.76,2.32,0,1.17-.19,2-1.38,2.43a13.11,13.11,0,0,1-4,.42H35.91c-2,0-4.26,0-4.31-2.58h3a.68.68,0,0,0,.57.68,4.89,4.89,0,0,0,1.21.11h1.37a4.33,4.33,0,0,0,1.46-.18.61.61,0,0,0,.36-.61c0-.55-.61-.58-1-.58H36.4c-.82,0-1.66,0-2.48-.07a2.15,2.15,0,0,1-2.27-2.38c0-2,1.53-2.34,3.19-2.49.94-.07,1.9-.07,2.84-.07a15.5,15.5,0,0,1,2.63.17c1.33.22,1.75.86,1.83,2.12Z"/><path class="cls-1" d="M44.88,64.05c0-2,1.81-2.28,3.44-2.31,1-.06,2-.07,3-.07,2,0,3.78.33,3.78,2.72v5.28H52.21V68.4c-.5,1.42-2.22,1.44-3.49,1.44h-.54c-2.06,0-3.64-.15-3.64-2.65,0-1.7,1-2.43,2.6-2.5.59,0,1.19,0,1.78,0h.86a2.69,2.69,0,0,1,2.43.84v-.86c0-1-.42-1.12-1.33-1.19l-1.34,0-1,0c-.45,0-.8.1-.82.62Zm4,4h.49a13.4,13.4,0,0,0,2-.12c.52-.09.76-.3.79-.83,0-.7-.74-.78-1.29-.78s-1.11,0-1.66,0-1.85,0-1.85.86S48.23,68,48.92,68Z"/><path class="cls-1" d="M64.53,63.77H61.59v5.9H58.67v-5.9H57.14V61.84h1.53c0-2.92,1-3.63,3.81-3.63.62,0,1.24,0,1.86.08v1.9c-.38,0-.75,0-1.14,0a2,2,0,0,0-1.31.33,1.46,1.46,0,0,0-.32,1.14c0,.07,0,.14,0,.21h2.94Z"/><path class="cls-1" d="M76.68,67.11c-.05,2.63-2.25,2.73-4.36,2.73-.95,0-1.87,0-2.81-.1C66.66,69.54,66,68.2,66,65.53s.84-3.69,3.46-3.81c.92,0,1.82,0,2.75,0a5.79,5.79,0,0,1,3.49.75c1.12,1,.85,2.57.94,3.88H69c0,1.19.35,1.66,1.58,1.68.55,0,1.09,0,1.64,0s1.23-.05,1.45-.33a1.06,1.06,0,0,0,.13-.57ZM72,63.41H70.94c-.86,0-2,0-2,1.16a1.62,1.62,0,0,0,0,.22h4.82C73.81,63.56,73.14,63.41,72,63.41Z"/><path class="cls-2" d="M56.47,0A20.65,20.65,0,1,0,77.12,20.65,20.66,20.66,0,0,0,56.47,0Zm-18,20.65A17.85,17.85,0,0,1,42.81,9L68.19,34.25a18,18,0,0,1-29.68-13.6ZM70.05,32.38,44.74,7.07A17.94,17.94,0,0,1,70.05,32.38Z"/><path class="cls-1" d="M79.36,41.26V38.55h-1v-.36h2.44v.36h-1v2.71Z"/><path class="cls-1" d="M81.19,41.26V38.19h.61l.73,2.18.15.45c0-.11.09-.27.16-.49l.74-2.14h.55v3.07h-.39V38.69l-.9,2.57h-.37l-.89-2.62v2.62Z"/></g></g></svg>